HIERARCHY
ROOT SimulationBone
{
	OFFSET 0.000000 0.000000 0.000000
	CHANNELS 6 Xposition Yposition Zposition Zrotation Yrotation Xrotation 
	JOINT Hips
	{
		OFFSET 0.000000 0.000000 0.000000
		CHANNELS 6 Xposition Yposition Zposition Zrotation Yrotation Xrotation 
		JOINT LeftUpLeg
		{
			OFFSET 0.103456 1.857840 10.548509
			CHANNELS 3 Zrotation Yrotation Xrotation
			JOINT LeftLeg
			{
				OFFSET 43.500000 -0.000042 0.000010
				CHANNELS 3 Zrotation Yrotation Xrotation
				JOINT LeftFoot
				{
					OFFSET 42.372192 0.000019 0.000000
					CHANNELS 3 Zrotation Yrotation Xrotation
					JOINT LeftToe
					{
						OFFSET 17.299999 -0.000000 0.000003
						CHANNELS 3 Zrotation Yrotation Xrotation
						End Site
						{
							OFFSET 0.000000 0.000000 0.000000
						}
					}
				}
			}
		}
		JOINT RightUpLeg
		{
			OFFSET 0.103456 1.857823 -10.548508
			CHANNELS 3 Zrotation Yrotation Xrotation
			JOINT RightLeg
			{
				OFFSET 43.500042 -0.000027 0.000004
				CHANNELS 3 Zrotation Yrotation Xrotation
				JOINT RightFoot
				{
					OFFSET 42.372261 0.000000 0.000010
					CHANNELS 3 Zrotation Yrotation Xrotation
					JOINT RightToe
					{
						OFFSET 17.299994 -0.000006 0.000017
						CHANNELS 3 Zrotation Yrotation Xrotation
						End Site
						{
							OFFSET 0.000000 0.000000 0.000000
						}
					}
				}
			}
		}
		JOINT Spine
		{
			OFFSET 6.901967 -2.603732 -0.000003
			CHANNELS 3 Zrotation Yrotation Xrotation
			JOINT Spine1
			{
				OFFSET 12.588099 0.000010 0.000008
				CHANNELS 3 Zrotation Yrotation Xrotation
				JOINT Spine2
				{
					OFFSET 12.343201 -0.000018 -0.000005
					CHANNELS 3 Zrotation Yrotation Xrotation
					JOINT Neck
					{
						OFFSET 25.832890 0.000023 0.000007
						CHANNELS 3 Zrotation Yrotation Xrotation
						JOINT Head
						{
							OFFSET 11.766609 -0.000008 -0.000006
							CHANNELS 3 Zrotation Yrotation Xrotation
							End Site
							{
								OFFSET 0.000000 0.000000 0.000000
							}
						}
					}
					JOINT LeftShoulder
					{
						OFFSET 19.745909 -1.480347 6.000101
						CHANNELS 3 Zrotation Yrotation Xrotation
						JOINT LeftArm
						{
							OFFSET 11.284133 0.000018 -0.000020
							CHANNELS 3 Zrotation Yrotation Xrotation
							JOINT LeftForeArm
							{
								OFFSET 33.000050 -0.000013 0.000019
								CHANNELS 3 Zrotation Yrotation Xrotation
								JOINT LeftHand
								{
									OFFSET 25.200005 0.000032 0.000011
									CHANNELS 3 Zrotation Yrotation Xrotation
									End Site
									{
										OFFSET 0.000000 0.000000 0.000000
									}
								}
							}
						}
					}
					JOINT RightShoulder
					{
						OFFSET 19.746101 -1.480358 -6.000078
						CHANNELS 3 Zrotation Yrotation Xrotation
						JOINT RightArm
						{
							OFFSET 11.284140 -0.000000 -0.000001
							CHANNELS 3 Zrotation Yrotation Xrotation
							JOINT RightForeArm
							{
								OFFSET 33.000103 0.000016 -0.000001
								CHANNELS 3 Zrotation Yrotation Xrotation
								JOINT RightHand
								{
									OFFSET 25.199762 0.000123 0.000432
									CHANNELS 3 Zrotation Yrotation Xrotation
									End Site
									{
										OFFSET 0.000000 0.000000 0.000000
									}
								}
							}
						}
					}
				}
			}
		}
	}
}
MOTION
Frames: 16
Frame Time: 0.016667
173.682388 0.000000 -336.296209 0.000000 63.168421 0.000000 1.128333 88.889107 0.218773 96.173387 -1.214948 -177.625308 -168.794834 8.778595 -173.955574 -12.540665 -5.314478 -4.768342 83.003634 5.695782 10.608874 21.454550 0.003107 0.000001 158.226345 5.193107 174.877158 -17.021892 0.773187 6.921151 67.549942 -4.393043 2.049343 21.454560 -0.003128 -0.000020 8.371721 -0.908831 -0.378378 6.737781 -1.794195 -0.808966 6.419545 -1.798902 -0.798108 5.984780 9.016085 0.706301 -15.796609 2.366775 1.019321 -179.589169 -78.290675 -1.950736 -27.117252 54.995926 6.510516 -31.687859 -14.018465 1.200109 10.743427 -5.566914 26.208051 -151.239989 69.190209 31.032225 -13.088765 -58.754938 -27.325504 -25.202873 13.125762 -1.051232 14.349625 2.810701 2.166846 
174.565042 0.000000 -338.048693 0.000000 64.550989 0.000000 0.857990 88.648062 0.170143 95.963892 -1.164328 -178.126606 -167.733957 8.621483 -173.338957 -12.338512 -5.382388 -4.508772 83.756558 5.482940 10.782519 21.454551 0.003100 0.000002 158.433710 5.485115 172.885178 -11.617558 2.632258 6.983248 68.138634 -4.544625 1.917304 21.454557 -0.003123 -0.000023 8.423717 -0.907489 -0.378418 6.841778 -1.791104 -0.809769 6.523538 -1.795814 -0.798928 5.595646 8.670593 0.461241 -16.253045 2.851692 0.570155 -177.950809 -78.305328 -3.618970 -25.680775 53.945368 7.238623 -32.234139 -14.151869 1.220402 10.816671 -5.239472 28.125967 -150.814482 69.207927 31.470703 -10.623355 -59.202878 -29.443362 -25.481557 13.175907 -1.059908 14.366964 1.673796 1.533340 
175.409936 0.000000 -339.797041 0.000000 65.900550 0.000000 0.681849 88.319862 0.170840 95.897901 -1.091877 -178.755698 -166.713812 8.435504 -172.849234 -12.605268 -5.473246 -4.284052 84.779647 5.246230 10.875451 21.454551 0.003094 0.000002 158.169819 5.644902 172.172185 -8.183674 4.276833 6.165732 68.839987 -3.518873 3.251674 21.454557 -0.003117 -0.000021 8.496542 -0.901372 -0.378000 6.987379 -1.778361 -0.809685 6.669141 -1.783076 -0.798920 5.297265 8.461440 0.263646 -16.663631 3.011493 0.293104 -176.413199 -78.310162 -5.184603 -24.061611 52.896880 8.211907 -32.772319 -14.333654 1.243032 11.075438 -4.896163 28.332011 -150.280033 69.204594 32.021899 -8.168405 -59.494613 -31.773916 -26.059172 13.371037 -1.080742 13.672418 0.444871 -0.222698 
176.217544 0.000000 -341.541085 0.000000 67.216083 0.000000 0.575520 87.940576 0.219144 95.935341 -0.946172 -179.460908 -165.744013 8.194003 -172.472653 -13.248236 -5.546562 -4.093340 85.952200 5.002451 10.897709 21.454550 0.003091 0.000002 157.693060 5.548517 172.444290 -6.395502 5.558149 4.659936 69.430036 -1.893895 4.907297 21.454557 -0.003111 -0.000018 8.578125 -0.882356 -0.387484 7.150521 -1.739177 -0.828706 6.832295 -1.744016 -0.818179 5.104243 8.408623 0.127790 -17.018298 2.915031 0.185590 -174.907342 -78.343032 -6.718240 -22.297103 51.934727 9.278929 -33.255023 -14.531231 1.265923 11.427258 -4.600942 27.187766 -149.710401 69.144398 32.611037 -5.893593 -59.613169 -34.088808 -26.798134 13.637856 -1.109630 12.588103 -0.819552 -2.538994 
176.988342 0.000000 -343.280659 0.000000 68.496833 0.000000 0.515300 87.546272 0.311020 96.032649 -0.678196 179.809166 -164.834513 7.869710 -172.196282 -14.174389 -5.563193 -3.936972 87.153623 4.768786 10.860878 21.454551 0.003094 0.000001 157.250079 5.082496 173.410676 -5.899024 6.258081 2.690825 69.624202 -0.212423 5.715380 21.454558 -0.003109 -0.000016 8.656379 -0.842289 -0.417211 7.307084 -1.656655 -0.886737 6.988881 -1.661852 -0.876712 5.031620 8.532020 0.068639 -17.309800 2.630654 0.243271 -173.344299 -78.440154 -8.310422 -20.401738 51.148048 10.310645 -33.634579 -14.712087 1.286044 11.788212 -4.415449 25.051655 -149.182954 68.992496 33.159733 -3.974867 -59.556440 -36.153929 -27.560292 13.903242 -1.140384 11.407759 -2.038693 -4.867812 
177.722804 0.000000 -345.015597 0.000000 69.742297 0.000000 0.484591 87.163743 0.434624 96.148226 -0.283605 179.107807 -163.996728 7.467589 -172.030154 -15.309487 -5.491828 -3.797224 88.251194 4.549510 10.773877 21.454552 0.003102 0.000000 156.982223 4.207200 174.742201 -6.421490 6.227711 0.586967 69.223349 1.080740 4.940567 21.454556 -0.003111 -0.000017 8.719549 -0.779341 -0.476920 7.433590 -1.526542 -1.002882 7.115422 -1.532445 -0.993650 5.101916 8.802755 0.096493 -17.531732 2.260318 0.434710 -171.707196 -78.617423 -9.977854 -18.349302 50.601848 11.236055 -33.889258 -14.852736 1.300859 12.114711 -4.382003 22.280890 -148.718345 68.733105 33.647506 -2.537437 -59.358398 -37.790678 -28.217930 14.112062 -1.165725 10.365236 -3.106262 -6.774671 
178.421406 0.000000 -346.745730 0.000000 70.952210 0.000000 0.493886 86.782669 0.554571 96.263541 0.072709 178.496298 -163.246398 7.124600 -172.072218 -16.655351 -5.326996 -3.578003 89.063323 4.298215 10.629205 21.454553 0.003108 0.000000 156.664445 3.209699 175.962462 -8.139887 5.691957 -1.059552 68.703294 1.882082 3.674217 21.454555 -0.003112 -0.000018 8.757329 -0.717059 -0.574012 7.509632 -1.395470 -1.193314 7.191510 -1.402521 -1.184877 5.364872 8.997768 0.199322 -17.673555 2.041906 0.624605 -170.367388 -78.819182 -11.341946 -16.024279 50.244373 12.142305 -34.102003 -14.965573 1.312723 12.481319 -4.440758 19.241116 -148.108033 68.422107 34.287776 -1.512527 -59.153316 -39.032396 -28.687965 14.280049 -1.184867 9.562062 -3.951385 -8.222375 
179.084623 0.000000 -348.470892 0.000000 72.126527 0.000000 0.557163 86.402701 0.642954 96.376574 0.254666 178.043788 -162.581414 6.929104 -172.376591 -18.181984 -5.082409 -3.190437 89.404005 3.973859 10.432064 21.454552 0.003107 -0.000000 156.127309 2.391586 176.708003 -11.105336 4.951326 -1.801511 68.452353 2.239034 3.076831 21.454556 -0.003110 -0.000017 8.763033 -0.672642 -0.712306 7.522000 -1.297701 -1.466802 7.203934 -1.306394 -1.458948 5.836486 8.918654 0.350281 -17.717460 2.155216 0.690663 -169.667279 -78.988665 -12.054518 -13.383929 49.997794 13.100970 -34.348409 -15.064102 1.324507 12.958960 -4.505240 16.257686 -147.163971 68.110657 35.273050 -0.754195 -59.062048 -39.951345 -28.937394 14.431023 -1.199168 9.054552 -4.517584 -9.249214 
179.712931 0.000000 -350.190917 0.000000 73.265403 0.000000 0.665067 86.100479 0.720379 96.486030 0.411713 177.846300 -161.928663 6.634700 -172.749923 -19.658447 -4.841114 -2.648018 89.117384 3.609739 10.256270 21.454550 0.003103 0.000000 155.690201 1.758409 177.184943 -14.290741 4.143510 -2.066532 67.613052 2.332038 2.668255 21.454558 -0.003109 -0.000017 8.742730 -0.612353 -0.883428 7.482184 -1.166478 -1.804578 7.164193 -1.177203 -1.797505 6.374868 8.662288 0.492259 -17.630498 2.414739 0.669565 -169.223277 -79.108679 -12.506244 -10.721870 49.825126 14.009450 -34.569294 -15.130676 1.333849 13.507898 -4.506835 13.486140 -145.985975 67.771914 36.501533 -0.062926 -59.077958 -40.503560 -29.088306 14.550543 -1.209645 8.825714 -4.754483 -9.804626 
180.306803 0.000000 -351.905637 0.000000 74.369176 0.000000 0.804369 85.945713 0.811140 96.586743 0.718605 177.961800 -161.245037 5.992853 -173.052684 -20.928019 -4.664237 -1.965987 88.105079 3.232219 10.152662 21.454548 0.003100 0.000000 155.677955 1.247025 177.588664 -16.685792 3.364848 -2.287458 65.410432 2.261401 1.850583 21.454559 -0.003115 -0.000018 8.704863 -0.500067 -1.069670 7.405953 -0.930852 -2.169121 7.088053 -0.943783 -2.163463 6.843223 8.380052 0.575103 -17.415160 2.584194 0.628270 -168.559219 -79.163292 -13.181561 -8.367796 49.716427 14.737894 -34.686634 -15.154396 1.338040 14.058593 -4.412599 11.050532 -144.734044 67.362116 37.810029 0.727276 -59.142433 -40.667330 -29.260418 14.617525 -1.217162 8.813094 -4.637066 -9.809494 
180.866715 0.000000 -353.614885 0.000000 75.438350 0.000000 0.977927 85.903397 0.910464 96.693369 1.167971 178.266961 -160.677741 5.097005 -173.581253 -22.322474 -4.430742 -1.089611 86.473008 2.764225 10.005032 21.454550 0.003095 0.000001 155.996576 0.824713 177.533118 -18.476915 2.855559 -1.935489 62.702686 1.816061 1.228356 21.454560 -0.003118 -0.000019 8.655451 -0.341067 -1.228173 7.304710 -0.604156 -2.475384 6.986901 -0.618946 -2.471690 7.277304 8.140330 0.595644 -17.229057 2.587837 0.592604 -167.679791 -79.119109 -14.075992 -6.468590 49.682163 15.211977 -34.682258 -15.182322 1.339736 14.548124 -4.289830 9.110136 -143.525017 66.838015 39.080018 1.620448 -59.118871 -40.650430 -29.408355 14.622837 -1.220337 8.836110 -4.219835 -9.170740 
181.393143 0.000000 -355.318496 0.000000 76.473573 0.000000 1.181613 85.908366 1.007079 96.820765 1.698686 178.612112 -160.428941 4.123768 -174.639273 -24.286985 -3.991259 0.020256 84.343413 2.132841 9.717045 21.454555 0.003086 0.000003 156.416480 0.501245 176.767245 -20.215385 2.844962 -0.589186 60.740144 0.931389 1.420485 21.454559 -0.003110 -0.000017 8.602498 -0.151751 -1.320451 7.194738 -0.221380 -2.647749 6.876992 -0.237218 -2.646354 7.719962 7.960591 0.562715 -17.221070 2.429113 0.564628 -166.708123 -78.947739 -15.064909 -5.091697 49.740774 15.367915 -34.581529 -15.264466 1.342822 14.941387 -4.237809 7.778616 -142.489786 66.183645 40.177394 2.543637 -58.882284 -40.635665 -29.455354 14.564932 -1.217560 8.738165 -3.581530 -7.841128 
181.886562 0.000000 -357.016301 0.000000 77.475621 0.000000 1.364128 85.879532 1.089549 96.957450 2.212961 178.922508 -160.766356 3.219199 -176.154335 -27.252008 -3.305537 1.300839 81.689061 1.411399 9.423536 21.454560 0.003082 0.000003 156.557799 0.386006 176.148215 -22.701158 3.229521 0.774267 60.731049 0.090538 1.824118 21.454558 -0.003101 -0.000015 8.563232 0.048099 -1.350678 7.111532 0.178817 -2.695841 6.793808 0.162683 -2.696855 8.071028 7.739114 0.487635 -17.349850 2.268693 0.494035 -165.691509 -78.654786 -16.100764 -4.162824 49.924205 15.134087 -34.524027 -15.404778 1.350534 15.285313 -4.368431 6.956359 -141.843015 65.486109 40.876536 3.299418 -58.441904 -40.502669 -29.364300 14.460583 -1.209088 8.550209 -2.823760 -5.963282 
182.347447 0.000000 -358.708133 0.000000 78.445383 0.000000 1.475608 85.762622 1.151226 97.089655 2.650790 179.162643 -161.904911 2.414211 -177.897856 -31.524279 -2.433022 2.637389 78.545660 0.658901 9.106484 21.454558 0.003092 0.000000 156.194441 0.545546 176.561940 -26.391929 3.776614 1.142636 63.309648 -0.267564 1.718473 21.454557 -0.003103 -0.000015 8.551696 0.246450 -1.333806 7.084020 0.573808 -2.650054 6.766273 0.557944 -2.653461 8.244362 7.367325 0.382284 -17.533457 2.265793 0.330649 -164.626586 -78.265668 -17.187390 -3.568342 50.280731 14.484656 -34.647679 -15.597519 1.365826 15.626524 -4.760321 6.477781 -141.702389 64.871738 41.049194 3.728427 -57.874370 -40.135141 -29.108069 14.332209 -1.195988 8.345370 -2.035943 -3.730736 
182.776272 0.000000 -360.393827 0.000000 79.383842 0.000000 1.516447 85.626534 1.217095 97.215251 3.140574 179.382778 -163.741040 1.393301 -179.399290 -36.935893 -1.783963 3.887141 75.384858 -0.346911 7.929409 21.454555 0.003102 -0.000002 155.895339 0.826212 177.900514 -30.053979 4.244201 0.786451 66.743426 -0.228016 1.282722 21.454558 -0.003107 -0.000017 8.560145 0.465760 -1.285739 7.096561 1.009229 -2.540612 6.778754 0.994019 -2.546657 8.352416 6.830089 0.259540 -17.717874 2.417329 0.079723 -163.398190 -77.850443 -18.442098 -3.165476 50.919421 13.597240 -34.968969 -15.844330 1.389047 15.931607 -5.362414 6.128575 -141.847058 64.512207 40.915280 3.899168 -57.384392 -39.686014 -28.659551 14.206626 -1.179635 8.199463 -1.231925 -1.359841 
183.173513 0.000000 -362.073215 0.000000 80.292065 0.000000 1.502468 85.562972 1.311188 97.323293 3.789000 179.645085 -166.107303 -0.072657 179.722420 -43.174435 -1.682975 4.968988 72.597385 -1.845140 5.181855 21.454555 0.003097 -0.000001 156.247312 1.035010 179.761532 -32.384053 4.489629 0.276533 69.207259 -0.029011 0.878865 21.454558 -0.003105 -0.000018 8.574034 0.720450 -1.218864 7.120043 1.514250 -2.391378 6.802136 1.499938 -2.400470 8.513525 6.167402 0.119472 -17.851469 2.681303 -0.245534 -161.962400 -77.499651 -19.909112 -2.811799 51.928489 12.684721 -35.489144 -16.134550 1.419719 16.168686 -6.091141 5.697497 -142.054163 64.519491 40.700430 3.920429 -57.147389 -39.307790 -28.036323 14.107024 -1.161896 8.174275 -0.450116 0.897083 
